<?xml version="1.0" encoding="UTF-8"?>
<!DOCTYPE svg PUBLIC "-//W3C//DTD SVG 1.1//EN" "http://www.w3.org/Graphics/SVG/1.1/DTD/svg11.dtd">
<!-- Creator: CorelDRAW 2020 (64-Bit) -->
<svg xmlns="http://www.w3.org/2000/svg" xml:space="preserve" width="15.8961in" height="16.3694in" version="1.1" style="shape-rendering:geometricPrecision; text-rendering:geometricPrecision; image-rendering:optimizeQuality; fill-rule:evenodd; clip-rule:evenodd"
viewBox="0 0 1863.19 1918.67"
 xmlns:xlink="http://www.w3.org/1999/xlink"
 xmlns:xodm="http://www.corel.com/coreldraw/odm/2003">
 <defs>
  <style type="text/css">
   <![CDATA[
    .str8 {stroke:black;stroke-width:13.02;stroke-miterlimit:2.61313}
    .str4 {stroke:black;stroke-width:39.07;stroke-miterlimit:2.61313}
    .str5 {stroke:black;stroke-width:39.07;stroke-miterlimit:2.61313}
    .str1 {stroke:#373435;stroke-width:0.81;stroke-miterlimit:2.61313}
    .str0 {stroke:#FEFEFE;stroke-width:0.35;stroke-miterlimit:2.61313}
    .str9 {stroke:#E6E7E8;stroke-width:0.35;stroke-miterlimit:2.61313}
    .str2 {stroke:#84716B;stroke-width:0.35;stroke-miterlimit:2.61313}
    .str3 {stroke:#EF4E36;stroke-width:0.35;stroke-miterlimit:2.61313}
    .str6 {stroke:black;stroke-width:0.35;stroke-miterlimit:2.61313}
    .str7 {stroke:#ED6D1B;stroke-width:0.35;stroke-miterlimit:2.61313}
    .fil1 {fill:none}
    .fil11 {fill:#FEFEFE}
    .fil0 {fill:#FEFEFE}
    .fil2 {fill:#D2D3D5}
    .fil13 {fill:#FFF212}
    .fil10 {fill:#84716B}
    .fil4 {fill:#F58634}
    .fil5 {fill:#EF4E36}
    .fil6 {fill:black}
    .fil7 {fill:black}
    .fil12 {fill:#121325}
    .fil3 {fill:#ED6D1B}
    .fil8 {fill:#FEFEFE;fill-rule:nonzero}
    .fil9 {fill:#E6E7E8;fill-rule:nonzero}
   ]]>
  </style>
   <mask id="id0">
  <linearGradient id="id1" gradientUnits="userSpaceOnUse" x1="1873.49" y1="1407.84" x2="622.72" y2="612.14">
   <stop offset="0" style="stop-opacity:1; stop-color:white"/>
   <stop offset="1" style="stop-opacity:0; stop-color:white"/>
  </linearGradient>
    <rect style="fill:url(#id1)" x="0.06" y="-0.41" width="1863.54" height="1918.92"/>
   </mask>
   <mask id="id2">
  <linearGradient id="id3" gradientUnits="userSpaceOnUse" x1="508.73" y1="1467.55" x2="504.68" y2="1200.38">
   <stop offset="0" style="stop-opacity:1; stop-color:white"/>
   <stop offset="1" style="stop-opacity:0; stop-color:white"/>
  </linearGradient>
    <rect style="fill:url(#id3)" x="202.04" y="1158.22" width="595.76" height="322.09"/>
   </mask>
   <mask id="id4">
  <linearGradient id="id5" gradientUnits="userSpaceOnUse" x1="508.73" y1="1467.55" x2="504.68" y2="1200.38">
   <stop offset="0" style="stop-opacity:1; stop-color:white"/>
   <stop offset="1" style="stop-opacity:0; stop-color:white"/>
  </linearGradient>
    <rect style="fill:url(#id5)" x="1183.63" y="1089.77" width="509.43" height="383.98"/>
   </mask>
   <mask id="id6">
  <linearGradient id="id7" gradientUnits="userSpaceOnUse" x1="1099.66" y1="1849.43" x2="1099.67" y2="1597.69">
   <stop offset="0" style="stop-opacity:1; stop-color:white"/>
   <stop offset="1" style="stop-opacity:0; stop-color:white"/>
  </linearGradient>
    <rect style="fill:url(#id7)" x="64.68" y="1448.02" width="1741.03" height="420.95"/>
   </mask>
   <mask id="id8">
  <linearGradient id="id9" gradientUnits="userSpaceOnUse" x1="1094.03" y1="1834.11" x2="1094.03" y2="1442.15">
   <stop offset="0" style="stop-opacity:1; stop-color:white"/>
   <stop offset="1" style="stop-opacity:0; stop-color:white"/>
  </linearGradient>
    <rect style="fill:url(#id9)" x="176.16" y="1514.55" width="1523.15" height="271.34"/>
   </mask>
   <mask id="id10">
  <linearGradient id="id11" gradientUnits="userSpaceOnUse" x1="907.71" y1="186.3" x2="907.71" y2="541.84">
   <stop offset="0" style="stop-opacity:1; stop-color:white"/>
   <stop offset="1" style="stop-opacity:0; stop-color:white"/>
  </linearGradient>
    <rect style="fill:url(#id11)" x="550.03" y="119.86" width="725.21" height="619.85"/>
   </mask>
 </defs>
 <g id="Layer_x0020_1">
  <metadata id="CorelCorpID_0Corel-Layer"/>
  <g>
   <path class="fil0" d="M1729 1101.54l0 307.88 0 -307.88zm-1627.79 307.88l41.82 0 0 -240.27c-12.81,-3.7 -20.07,-11.86 -20.86,-33l49.53 -139.19c11.09,-33.85 115.47,-330.89 125.62,-340.95 12.5,-12.39 177.84,-77.19 188.86,-90.38 9.17,-10.97 43.55,-110.77 51.38,-132.42 55.19,-152.64 21.33,-119.18 113.79,-165.44l79.31 -37.33c11.54,-6.33 7.37,-0.51 11.41,-13.33l22.74 -115.11c8.03,-45.06 13.35,-77.99 18.39,-101.62l237.45 0 145.62 40.04c35.15,8.98 35.38,10.19 50.64,41.26 35.58,72.45 90.46,167.51 128.47,242.67 24.76,48.96 1.16,80.3 1.16,161.43 41.24,0 82.47,0 123.71,0 67.94,0 82.96,-9.76 95.95,27.76 10.54,30.43 21.13,60.11 31.74,91.97l158.39 459.95c1.61,19.93 -5.31,29.44 -16.68,33.65l9.1 310.31 13.12 0c55.57,0 101.04,45.47 101.04,101.04l0 306.99c0,55.57 -45.47,101.04 -101.04,101.04l-1660.65 0c-55.57,0 -101.04,-45.47 -101.04,-101.04l0 -306.99c0,-55.57 45.47,-101.04 101.04,-101.04z"/>
   <path id="1" class="fil1 str0" d="M1729 1101.54l0 307.88m-1627.79 0l41.82 0 0 -240.27c-12.81,-3.7 -20.07,-11.86 -20.86,-33l49.53 -139.19c11.09,-33.85 115.47,-330.89 125.62,-340.95 12.5,-12.39 177.84,-77.19 188.86,-90.38 9.17,-10.97 43.55,-110.77 51.38,-132.42 55.19,-152.64 21.33,-119.18 113.79,-165.44l79.31 -37.33c11.54,-6.33 7.37,-0.51 11.41,-13.33l22.74 -115.11c8.03,-45.06 13.35,-77.99 18.39,-101.62l237.45 0 145.62 40.04c35.15,8.98 35.38,10.19 50.64,41.26 35.58,72.45 90.46,167.51 128.47,242.67 24.76,48.96 1.16,80.3 1.16,161.43 41.24,0 82.47,0 123.71,0 67.94,0 82.96,-9.76 95.95,27.76 10.54,30.43 21.13,60.11 31.74,91.97l158.39 459.95c1.61,19.93 -5.31,29.44 -16.68,33.65l9.1 310.31 13.12 0c55.57,0 101.04,45.47 101.04,101.04l0 306.99c0,55.57 -45.47,101.04 -101.04,101.04l-1660.65 0c-55.57,0 -101.04,-45.47 -101.04,-101.04l0 -306.99c0,-55.57 45.47,-101.04 101.04,-101.04z"/>
  </g>
  <path class="fil2" style="mask:url(#id0)" d="M101.5 1409.03l41.82 0 0 -240.27c-12.81,-3.7 -20.07,-11.86 -20.86,-33l49.53 -139.19c11.09,-33.85 115.47,-330.89 125.62,-340.95 12.5,-12.39 177.84,-77.19 188.86,-90.38 9.17,-10.97 43.55,-110.77 51.38,-132.42 55.19,-152.64 21.33,-119.18 113.79,-165.44l79.31 -37.33c11.54,-6.33 7.37,-0.51 11.41,-13.33l22.74 -115.11c8.03,-45.06 13.35,-77.99 18.39,-101.62l237.45 0 145.62 40.04c35.15,8.98 35.38,10.19 50.64,41.26 35.58,72.45 90.46,167.51 128.47,242.67 24.76,48.96 1.16,80.3 1.16,161.43 41.24,0 82.47,0 123.71,0 67.94,0 82.96,-9.76 95.95,27.76 10.54,30.43 21.13,60.11 31.74,91.97l158.39 459.95c1.61,19.93 -5.31,29.44 -16.68,33.65l9.1 310.31 13.12 0c55.57,0 101.04,45.47 101.04,101.04l0 306.99c0,55.57 -45.47,101.04 -101.04,101.04l-1660.65 0c-55.57,0 -101.04,-45.47 -101.04,-101.04l0 -306.99c0,-55.57 45.47,-101.04 101.04,-101.04z"/>
  <polygon class="fil3 str1" points="813.94,136.48 776.82,341.6 630.31,409.97 546.31,663.93 362.68,745.97 214.21,1136.68 223.82,1174.43 584.54,1226.2 655.7,1142.54 721.73,898.57 970.22,947.19 1106.97,872.95 1290.6,1076.12 1672.89,1102.49 1493.76,579.93 1288.64,583.83 1286.69,390.43 1167.52,179.46 850.57,111.08 "/>
  <polygon class="fil4 str2" points="202.22,1158.4 202.22,1480.13 797.63,1480.13 764.88,1421.49 662.61,1266.56 541.1,1203.74 223.82,1174.43 "/>
  <polygon class="fil4 str2" points="1352.99,1089.95 1210.02,1233.74 1183.81,1473.57 1692.88,1472.22 1681.74,1092.23 1675.61,1118.93 "/>
  <polygon class="fil5 str3" style="mask:url(#id2)" points="202.22,1158.4 202.22,1480.13 797.63,1480.13 764.88,1421.49 662.61,1266.56 541.1,1203.74 223.82,1174.43 "/>
  <polygon class="fil5 str3" style="mask:url(#id4)" points="1352.99,1089.95 1210.02,1233.74 1183.81,1473.57 1692.88,1472.22 1681.74,1092.23 1675.61,1118.93 "/>
  <line class="fil1 str4" x1="215.46" y1="1161.55" x2="215.46" y2= "1474.8" />
  <line class="fil1 str4" x1="1672.89" y1="1102.49" x2="1672.89" y2= "1470.58" />
  <path class="fil6" d="M1252.93 738.2c4.3,18.77 4.07,42.17 10.46,57.64 23,-40.36 43.8,-133.77 48.06,-186.27l157.55 -0.02c13.57,8.95 18.8,39.92 24.05,55.47 21.11,62.66 136.33,383.35 140.93,409.37 -92.6,-4.01 -194.38,-14.67 -283.25,-18.03 -16.03,-0.61 -23.46,5.65 -32.49,9.27l-72.91 -100.51c-86.38,-117.18 -57.56,-111.33 -140.17,-115.55 -76.14,-3.88 -55.24,-16.7 -123.19,40.69 -59.12,49.94 -25.23,45.92 -194.44,11.47 -78.68,-16.01 -66.65,-10.49 -94.31,57.02 -12.28,29.97 -91.33,230.63 -99.33,240.79 -20.89,-7.05 -49.6,-27.57 -69.47,-31.66l-277.7 -23.86c5.52,-27.03 75.06,-210.51 90.75,-255.89 7.59,-21.97 15.45,-43.89 23.25,-65.23 30.19,-82.53 10.21,-63.44 78.21,-92.37 20.14,-8.57 40.13,-19.68 60.55,-26.01 -11.87,57.57 -27.49,100.79 -29.59,165.19 13.46,-13.87 31.87,-45.05 42.61,-65.41 7.32,-13.88 26.22,-63.1 37.26,-71.46l102.73 -300.01c6.89,-12.49 71.31,-40.19 89.51,-46.79 -4,33.29 -11.09,66.75 -16.24,100.76 -4.27,28.2 -2.69,31.49 13.8,43.51 41.69,30.37 127.05,94.16 172.32,109.89 -12.21,-24.66 -111.73,-124.69 -132.74,-139.31 3.27,-29.77 13.85,-66.24 20.02,-98.56 6.1,-31.91 10.35,-63.55 15.32,-96.37 9.31,-61.48 24.13,-124.92 35.57,-186.82 22.54,2.98 260.56,69.51 267.46,74.88 -11.8,24.72 -90.68,132.36 -89.43,184.83 0.86,-1.07 72.41,-60.79 121.01,-127.72l16.15 -19.1c8.46,25.34 40.46,79.7 55.01,105.82 7.99,14.33 52.68,96.56 53.64,105.48 3.48,32.14 -28.75,156.47 -20.93,294.85zm-457.09 -630.45l27.87 0 192.32 0 135.03 37.13c32.59,8.33 32.81,9.45 46.96,38.26 32.99,67.18 83.88,155.33 119.13,225.02 22.96,45.4 1.08,74.47 1.08,149.69 38.24,0 76.48,0 114.72,0 63,0 76.93,-9.05 88.98,25.74 9.77,28.21 19.59,55.74 29.43,85.28l146.88 426.51c3.3,40.92 -32.14,34.46 -65.42,32.25 -45.66,-3.03 -271.01,-21.62 -281.81,-17.48 -14.71,11.55 -24.35,23.34 -37.32,36.41l-62.04 62.51c-46.36,42.22 -60.44,251.15 -71.55,318.81l472.48 -0.05c32.21,-0.2 31.94,-0.84 49.13,17.29 0,20.45 -2.05,30.61 -17.16,34.59l-1441.39 0.77c-41.9,0.03 -62.27,7.44 -62.27,-36.33 24.19,-22.05 22.09,-16.32 62.27,-16.27 177.76,0.24 378.04,3.27 550.64,-0.18 -73.67,-154.47 -119.3,-226.11 -262.95,-300.36 -29.38,-15.18 -181.75,-22.09 -221.35,-25.54 -24.69,-2.16 -49.54,-4.38 -74.41,-6.4 -32.12,-2.6 -50.94,-0.92 -52.2,-34.46l45.93 -129.07c10.28,-31.39 107.08,-306.83 116.49,-316.16 11.59,-11.49 164.91,-71.58 175.12,-83.81 8.5,-10.18 40.38,-102.72 47.64,-122.8 51.17,-141.55 19.78,-110.51 105.52,-153.41l73.55 -34.61c10.7,-5.87 6.84,-0.47 10.58,-12.36l21.09 -106.74c7.45,-41.78 12.38,-72.32 17.05,-94.23z"/>
  <path class="fil0 str0" d="M895.9 1153.14c2.93,12.14 8.41,36.97 7.09,47.47 -1.31,10.49 -9.41,6.65 -21.6,6.06 -12.19,-0.59 -28.48,2.08 -43.67,0.74 -15.19,-1.34 -29.28,-6.68 -41.29,-12.21 -12.01,-5.53 -21.94,-11.26 -31.79,-19.07 -9.85,-7.81 -19.62,-17.71 -26.21,-27.08 -6.59,-9.37 -10,-18.22 -13.45,-33.06 -3.45,-14.83 -6.94,-35.65 -8.63,-49.3 -1.68,-13.65 -1.56,-20.14 -0.2,-21.85 1.36,-1.72 3.97,1.33 11.97,8.48 8.01,7.15 21.43,18.4 45.3,29.71 23.87,11.31 58.2,22.68 79.74,32.53 21.54,9.85 30.28,18.19 34.84,22.09 4.56,3.9 4.95,3.35 7.88,15.5z"/>
  <path class="fil0 str0" d="M1050.21 1125.39c-12.05,4.65 -16.73,16.14 -19.93,24.89 -3.2,8.75 -4.9,14.77 -2.02,19.81 2.89,5.04 10.38,9.11 15.31,12.02 4.94,2.91 7.32,4.67 16.59,8.47 9.27,3.79 25.44,9.62 38.11,13.12 12.68,3.5 21.86,4.68 29.83,5.84 7.97,1.17 14.71,2.32 26.73,-2.05 12.02,-4.38 29.31,-14.28 41.45,-26.01 12.14,-11.73 19.12,-25.28 22.88,-38.83 3.76,-13.55 4.3,-27.1 5.64,-38.79 1.34,-11.69 3.49,-21.52 3.49,-24.19 0.01,-2.68 -2.13,1.8 -11.24,7.34 -9.11,5.54 -25.19,12.16 -45.68,18.69 -20.49,6.53 -45.39,12.98 -67.54,15.11 -22.16,2.13 -41.58,-0.06 -53.63,4.59z"/>
  <rect class="fil3 str5" x="84.22" y="1467.55" width="1701.96" height="381.88" rx="68.18" ry="75.79"/>
  <path class="fil7 str6" d="M1163.49 1106.41c0.4,1.27 0.72,2.58 0.97,3.92 4.1,21.84 -13.37,43.45 -39.02,48.27 -25.65,4.81 -49.77,-8.99 -53.87,-30.83 -0.25,-1.34 -0.42,-2.67 -0.51,-4l92.43 -17.35z"/>
  <path class="fil5 str5" style="mask:url(#id6)" d="M160.01 1467.55l1550.37 0c41.69,0 75.79,34.11 75.79,75.79l0 230.29c0,41.69 -34.11,75.79 -75.79,75.79l-1550.37 0c-41.69,0 -75.79,-34.11 -75.79,-75.79l0 -230.29c0,-41.69 34.11,-75.79 75.79,-75.79z"/>
  <polygon class="fil3 str7" points="255.2,1500.57 1643.61,1500.57 1643.61,1624.13 255.2,1624.13 "/>
  <path class="fil8 str8" d="M180.98 1519.71l149.93 0c17.94,0 29.57,5.62 35.02,16.77l1.2 4.85 0 205.87c0,20.45 -16.08,34.8 -48.31,42.99 -3.72,0.58 -7.38,0.87 -10.9,0.87l-126.93 0c-1.4,0 -2.13,-0.53 -2.13,-1.55l0 -268.19c0.27,-1.07 1,-1.6 2.13,-1.6zm63.47 47.88l0 175.63 70.11 0 0 -0.87c-8.84,-3.39 -13.23,-10.32 -13.23,-20.74l0 -154.01 -56.89 0zm144.48 -47.88l183.82 0c1.4,0.19 2.13,0.73 2.13,1.6l0 87.86c0,1.07 -0.73,1.55 -2.13,1.55l-35.09 0c-18.94,-2.52 -28.38,-11.05 -28.38,-25.54l0 -17.59 -56.89 0 0 63.87 81.01 0c1.4,0.19 2.13,0.73 2.13,1.55l0 22.44c0,13.09 -9.44,21.03 -28.38,23.84l-54.76 0 0 63.92 56.89 0 0 -16.77c0,-17.59 14.22,-26.41 42.6,-26.41l20.87 0c1.4,0.19 2.13,0.78 2.13,1.7l0 87.77c0,1.02 -0.73,1.55 -2.13,1.55l-157.5 0c-17.01,0 -26.58,-9.3 -28.64,-27.96l0 -241.78c0.27,-1.07 1.06,-1.6 2.33,-1.6zm207.55 0.87l36.22 0c19.74,0 31.04,9.01 33.89,27.14 21.93,113.11 32.9,171.85 32.9,176.31l0 2.42c0,3.2 -1.79,6.69 -5.45,10.37l0 0.73 33.89 0 0 -0.73c-3.66,-3.68 -5.45,-7.17 -5.45,-10.37l0 -1.55c0,-5.14 11.7,-67.65 35.02,-187.55 6.38,-11.2 16.95,-16.77 31.77,-16.77l37.15 0 0 0.73c-29.97,157.84 -47.52,247.79 -52.57,269.74l-124.81 0c-1.79,0 -5.45,-17.01 -10.9,-51.13 -5.05,-22.68 -19.67,-95.57 -43.8,-218.61l2.13 -0.73zm251.54 -0.87l183.82 0c1.4,0.19 2.13,0.73 2.13,1.6l0 134.14c0,1.07 -0.73,1.55 -2.13,1.55l-30.57 0c-21.93,-1.89 -32.9,-9.89 -32.9,-23.99l0 -65.42 -56.89 0 0 175.63 56.89 0 0 -35.91c2.59,-16.04 13.56,-24.04 32.9,-24.04l30.57 0c1.4,0.19 2.13,0.78 2.13,1.74l0 104.49c0,1.02 -0.73,1.55 -2.13,1.55l-157.5 0c-18.94,-2.08 -28.44,-11.1 -28.44,-27.14l0 -242.6c0.13,-1.07 0.86,-1.6 2.13,-1.6zm207.55 0l146.61 0c27.05,0 40.54,9.89 40.54,29.56l0 213.09c0,14.68 -7.31,23.94 -21.8,27.82l-6.65 0.87 -35.02 0c-1.46,0 -2.19,-0.53 -2.19,-1.55l0 -121.25c-1.13,0.19 -20.47,14.25 -58.02,42.16l0 79.09c0,1.02 -0.66,1.55 -2.13,1.55l-36.22 0c-18.14,-3.39 -27.25,-10.03 -27.25,-19.87l0 -249.87c0.13,-1.07 0.86,-1.6 2.13,-1.6zm68.19 48.03l0 74.92c1.13,-0.15 20.47,-14.2 58.02,-42.16l0 -32.76 -58.02 0zm140.56 -47.15l36.22 0c19.74,0 31.04,9.01 33.89,27.14 21.93,113.11 32.9,171.85 32.9,176.31l0 2.42c0,3.2 -1.79,6.69 -5.45,10.37l0 0.73 33.89 0 0 -0.73c-3.65,-3.68 -5.45,-7.17 -5.45,-10.37l0 -1.55c0,-5.14 11.7,-67.65 35.02,-187.55 6.38,-11.2 16.95,-16.77 31.77,-16.77l37.15 0 0 0.73c-29.97,157.84 -47.52,247.79 -52.57,269.74l-124.81 0c-1.79,0 -5.45,-17.01 -10.9,-51.13 -5.05,-22.68 -19.67,-95.57 -43.8,-218.61l2.13 -0.73zm251.74 -0.87l183.82 0c1.4,0.19 2.13,0.73 2.13,1.6l0 87.86c0,1.07 -0.73,1.55 -2.13,1.55l-35.09 0c-18.94,-2.52 -28.38,-11.05 -28.38,-25.54l0 -17.59 -56.89 0 0 63.87 81.01 0c1.4,0.19 2.13,0.73 2.13,1.55l0 22.44c0,13.09 -9.44,21.03 -28.38,23.84l-54.76 0 0 63.92 56.89 0 0 -16.77c0,-17.59 14.22,-26.41 42.6,-26.41l20.87 0c1.4,0.19 2.13,0.78 2.13,1.7l0 87.77c0,1.02 -0.73,1.55 -2.13,1.55l-157.5 0c-17.01,0 -26.58,-9.3 -28.64,-27.96l0 -241.78c0.27,-1.07 1.06,-1.6 2.33,-1.6z"/>
  <path class="fil9" style="mask:url(#id8)" d="M178.29 1514.55l149.93 0c17.94,0 29.57,5.62 35.02,16.77l1.2 4.85 0 205.87c0,20.45 -16.08,34.8 -48.32,42.99 -3.72,0.58 -7.38,0.87 -10.9,0.87l-126.93 0c-1.4,0 -2.13,-0.53 -2.13,-1.55l0 -268.19c0.27,-1.07 1,-1.6 2.13,-1.6zm63.47 47.88l0 175.63 70.11 0 0 -0.87c-8.84,-3.39 -13.23,-10.32 -13.23,-20.74l0 -154.01 -56.89 0zm144.48 -47.88l183.82 0c1.39,0.19 2.13,0.73 2.13,1.6l0 87.86c0,1.07 -0.73,1.55 -2.13,1.55l-35.09 0c-18.94,-2.52 -28.38,-11.05 -28.38,-25.54l0 -17.59 -56.89 0 0 63.87 81.01 0c1.4,0.19 2.13,0.73 2.13,1.55l0 22.44c0,13.09 -9.44,21.03 -28.38,23.84l-54.76 0 0 63.92 56.89 0 0 -16.77c0,-17.59 14.22,-26.41 42.6,-26.41l20.87 0c1.39,0.19 2.13,0.78 2.13,1.7l0 87.77c0,1.02 -0.73,1.55 -2.13,1.55l-157.51 0c-17.01,0 -26.58,-9.3 -28.64,-27.96l0 -241.78c0.27,-1.07 1.06,-1.6 2.33,-1.6zm207.55 0.87l36.22 0c19.74,0 31.04,9.01 33.89,27.14 21.93,113.11 32.9,171.85 32.9,176.31l0 2.42c0,3.2 -1.79,6.69 -5.45,10.37l0 0.73 33.89 0 0 -0.73c-3.65,-3.68 -5.45,-7.17 -5.45,-10.37l0 -1.55c0,-5.14 11.7,-67.65 35.02,-187.55 6.38,-11.2 16.95,-16.77 31.77,-16.77l37.15 0 0 0.73c-29.97,157.84 -47.52,247.79 -52.57,269.74l-124.81 0c-1.79,0 -5.45,-17.01 -10.9,-51.13 -5.05,-22.68 -19.67,-95.57 -43.8,-218.61l2.13 -0.73zm251.54 -0.87l183.82 0c1.4,0.19 2.13,0.73 2.13,1.6l0 134.14c0,1.07 -0.73,1.55 -2.13,1.55l-30.57 0c-21.93,-1.89 -32.9,-9.89 -32.9,-23.99l0 -65.42 -56.89 0 0 175.63 56.89 0 0 -35.91c2.59,-16.04 13.56,-24.04 32.9,-24.04l30.57 0c1.4,0.19 2.13,0.78 2.13,1.74l0 104.49c0,1.02 -0.73,1.55 -2.13,1.55l-157.51 0c-18.94,-2.08 -28.44,-11.1 -28.44,-27.14l0 -242.6c0.13,-1.07 0.86,-1.6 2.13,-1.6zm207.55 0l146.61 0c27.05,0 40.54,9.89 40.54,29.56l0 213.09c0,14.68 -7.31,23.94 -21.8,27.82l-6.65 0.87 -35.02 0c-1.46,0 -2.19,-0.53 -2.19,-1.55l0 -121.25c-1.13,0.19 -20.47,14.25 -58.02,42.16l0 79.09c0,1.02 -0.66,1.55 -2.13,1.55l-36.22 0c-18.14,-3.39 -27.25,-10.03 -27.25,-19.87l0 -249.87c0.13,-1.07 0.86,-1.6 2.13,-1.6zm68.19 48.03l0 74.92c1.13,-0.15 20.47,-14.2 58.02,-42.16l0 -32.76 -58.02 0zm140.56 -47.15l36.22 0c19.74,0 31.04,9.01 33.89,27.14 21.93,113.11 32.9,171.85 32.9,176.31l0 2.42c0,3.2 -1.79,6.69 -5.45,10.37l0 0.73 33.89 0 0 -0.73c-3.66,-3.68 -5.45,-7.17 -5.45,-10.37l0 -1.55c0,-5.14 11.7,-67.65 35.02,-187.55 6.38,-11.2 16.95,-16.77 31.77,-16.77l37.15 0 0 0.73c-29.97,157.84 -47.52,247.79 -52.57,269.74l-124.81 0c-1.79,0 -5.45,-17.01 -10.9,-51.13 -5.05,-22.68 -19.67,-95.57 -43.8,-218.61l2.13 -0.73zm251.74 -0.87l183.82 0c1.4,0.19 2.13,0.73 2.13,1.6l0 87.86c0,1.07 -0.73,1.55 -2.13,1.55l-35.09 0c-18.94,-2.52 -28.38,-11.05 -28.38,-25.54l0 -17.59 -56.89 0 0 63.87 81.01 0c1.4,0.19 2.13,0.73 2.13,1.55l0 22.44c0,13.09 -9.44,21.03 -28.38,23.84l-54.76 0 0 63.92 56.89 0 0 -16.77c0,-17.59 14.22,-26.41 42.6,-26.41l20.87 0c1.4,0.19 2.13,0.78 2.13,1.7l0 87.77c0,1.02 -0.73,1.55 -2.13,1.55l-157.5 0c-17.01,0 -26.58,-9.3 -28.64,-27.96l0 -241.78c0.27,-1.07 1.06,-1.6 2.33,-1.6z"/>
  <path class="fil10" d="M1000.94 1105.15c-7.73,13.92 -7.99,19.85 1.29,20.75 9.28,0.9 28.1,-3.22 49.89,-17.14 21.79,-13.92 46.54,-37.64 76.53,-63.55 29.99,-25.91 65.23,-54.01 75.8,-62.13 10.57,-8.12 -3.53,3.74 -28.5,21.14 -24.97,17.4 -60.8,40.35 -86.97,55.69 -26.17,15.34 -42.67,23.07 -43.44,17.53 -0.77,-5.54 14.18,-24.36 15.73,-31.58 1.55,-7.22 -10.31,-2.84 -23.85,10.31 -13.54,13.15 -28.75,35.06 -36.48,48.98z"/>
  <path class="fil10" d="M1042.84 1118.55c10.18,-5.67 24.88,-3.61 44.6,-5.28 19.72,-1.68 44.47,-7.09 70,-16.37 25.52,-9.28 51.82,-22.43 63.9,-26.68 9.32,-3.28 10.17,-1.27 9.12,2.26 1.18,6.64 -0.09,43.5 -1.51,65.82 -1.57,24.64 -3.32,31.55 -8.56,38.9 -5.24,7.35 -13.99,15.13 -25.96,21.59 -11.98,6.47 -27.19,11.62 -38.4,14.59 -11.21,2.97 -18.43,3.74 -25.27,3.74 -6.83,0 -13.28,-0.77 -18.3,-2.96 -5.03,-2.19 -8.64,-5.8 -5.29,-7.09 3.35,-1.29 13.66,-0.26 22.17,0.51 8.51,0.77 15.21,1.29 26.17,-3.48 10.96,-4.77 26.17,-14.82 37.25,-23.59 11.09,-8.77 18.05,-16.24 24.11,-41.29 4.48,-18.48 8.47,-46.52 11.01,-60.01 -1.87,4.41 -4.67,9.21 -12.22,14.34 -9.5,6.45 -26.52,13.41 -47.66,19.21 -21.14,5.8 -46.41,10.44 -66.9,12.37 -20.5,1.93 -36.22,1.16 -45.25,2.06 -9.02,0.9 -11.34,3.48 -14.31,8.64 -2.97,5.16 -6.58,12.89 -10.06,15.86 -3.48,2.96 -6.83,1.16 -5.67,-6.45 1.16,-7.61 6.83,-21.01 17.02,-26.68z"/>
  <path class="fil7 str6" d="M855.44 1112.44c-0.22,1.32 -0.52,2.63 -0.9,3.94 -6.19,21.34 -31.53,32.75 -56.6,25.48 -25.07,-7.27 -40.37,-30.47 -34.17,-51.82 0.38,-1.31 0.83,-2.57 1.35,-3.81l90.32 26.21z"/>
  <path class="fil10" d="M1037.94 1179.91c3.48,0.26 11.21,4.64 15.34,8.64 4.12,4 4.64,7.61 1.16,7.35 -3.48,-0.26 -10.96,-4.38 -15.08,-8.38 -4.12,-4 -4.9,-7.86 -1.42,-7.61z"/>
  <path class="fil11 str9" d="M773.7 1345.39c2.79,3.72 14.97,6.83 26.86,13.12 11.89,6.28 23.51,15.73 33.48,20.3 9.97,4.57 18.3,4.25 37.25,9.3 18.95,5.05 48.5,15.48 76.21,18.21 27.71,2.73 53.56,-2.25 81.8,-13.08 28.24,-10.84 58.86,-27.54 78.55,-45.04 19.69,-17.5 28.44,-35.8 32.45,-48.51 4.01,-12.71 3.28,-19.84 1.83,-26.32 -1.45,-6.49 -3.61,-12.34 -9.39,-13.29 -5.78,-0.95 -15.19,3.01 -29.55,9.7 -14.36,6.69 -33.69,16.1 -74.37,26.18 -40.69,10.08 -102.73,20.82 -142.31,27.28 -39.57,6.46 -56.68,8.65 -70,9.57 -13.33,0.92 -22.87,0.57 -30.94,2.56 -8.07,1.99 -14.66,6.31 -11.87,10.03z"/>
  <path class="fil10" d="M1072.98 1089.55c1.44,1.16 8.14,3.48 19.36,4.77 11.21,1.29 26.94,1.55 39.7,-0 12.76,-1.55 22.56,-4.9 26.56,-6.57 4,-1.68 2.19,-1.68 -1.42,-1.68 -3.61,0 -9.02,0 -17.4,0.77 -8.38,0.77 -19.72,2.32 -30.32,2.71 -10.59,0.38 -20.44,-0.39 -27.27,-0.78 -6.83,-0.39 -10.65,-0.38 -9.21,0.78z"/>
  <path class="fil10" d="M730.34 987.65c7.52,8.54 25.12,33.02 44.88,50.61 19.76,17.59 41.69,28.3 61.58,37.86 19.89,9.56 37.74,17.98 45.13,19.25 7.39,1.28 4.33,-4.59 0.26,-12.88 -4.08,-8.29 -9.18,-19 -7.9,-20.91 1.28,-1.91 8.92,4.97 15.17,15.43 6.25,10.45 11.09,24.48 17.21,35.57 6.12,11.09 13.51,19.25 14.92,23.84 1.4,4.59 -3.19,5.61 -7.39,6.63 -4.21,1.02 -8.03,2.04 -10.33,5.23 -2.29,3.19 -3.06,8.54 -6.25,8.29 -3.19,-0.25 -8.8,-6.12 -14.15,-13.13 -5.35,-7.01 -10.45,-15.17 -18.74,-21.29 -8.29,-6.12 -19.76,-10.2 -33.15,-13.26 -13.39,-3.06 -28.69,-5.1 -45.13,-11.09 -16.45,-5.99 -34.04,-15.94 -49.72,-29.58 -15.68,-13.64 -29.45,-30.98 -31.36,-36.46 -1.91,-5.48 8.03,0.89 19.63,9.82 11.6,8.92 24.86,20.4 35.44,28.05 10.58,7.65 18.49,11.47 27.16,14.02 8.67,2.55 18.1,3.82 26.77,5.74 8.67,1.91 16.57,4.46 15.68,2.93 -0.89,-1.53 -10.58,-7.14 -21.42,-14.53 -10.84,-7.39 -22.82,-16.57 -36.46,-30.85 -13.64,-14.28 -28.94,-33.66 -37.86,-47.04 -8.92,-13.39 -11.47,-20.78 -3.95,-12.24z"/>
  <path class="fil10" d="M715.24 1043.77c1.91,1.02 2.81,21.19 5.17,40.07 2.36,18.88 6.18,36.47 14.22,52.28 8.03,15.81 20.27,29.83 35.32,40.8 15.04,10.96 32.89,18.87 47.68,23.33 14.79,4.46 26.52,5.48 39.14,4.59 12.62,-0.89 26.14,-3.7 33.91,-3.44 7.78,0.25 9.82,3.57 10.2,7.27 0.38,3.7 -0.89,7.78 -2.8,8.16 -1.91,0.38 -4.46,-2.93 -9.18,-4.97 -4.72,-2.04 -11.6,-2.8 -21.04,-1.28 -9.43,1.53 -21.42,5.35 -36.08,3.82 -14.66,-1.53 -32,-8.41 -50.23,-18.36 -18.23,-9.94 -37.35,-22.95 -49.85,-42.96 -12.49,-20.02 -18.36,-47.04 -19.83,-69.62 -1.47,-22.58 1.46,-40.7 3.38,-39.68z"/>
  <path class="fil10" d="M798.22 1340.38c8.15,-0.26 22.05,-0.53 40.09,-2.64 18.04,-2.11 40.22,-6.07 69.62,-10.69 29.4,-4.62 66.01,-9.9 97.42,-16.89 31.4,-6.99 57.59,-15.7 76.17,-21.51 18.57,-5.81 29.53,-8.71 34.48,-12.01 4.94,-3.3 3.87,-6.99 6.01,-9.24 2.14,-2.24 7.48,-3.03 11.76,-2.11 4.28,0.92 7.48,3.56 5.88,13.33 -1.6,9.76 -8.02,26.65 -15.5,40.51 -7.48,13.85 -16.04,24.67 -35.01,35.76 -18.98,11.08 -48.37,22.43 -74.7,31.01 -26.32,8.58 -49.58,14.38 -74.7,13.99 -25.12,-0.4 -52.11,-6.99 -77.1,-16.1 -24.99,-9.1 -47.97,-20.72 -61.61,-27.42 -13.64,-6.71 -17.93,-8.51 -22.55,-9.87 -4.62,-1.36 -9.57,-2.27 -5.56,1.93 4.02,4.2 17,13.52 40.06,25.17 23.06,11.65 56.2,25.64 81.86,33.42 25.66,7.79 43.83,9.37 63.07,9.1 19.24,-0.26 39.55,-2.37 64.27,-10.82 24.72,-8.44 53.85,-23.22 72.29,-34.04 18.44,-10.82 26.19,-17.68 33.81,-31.54 7.62,-13.85 15.1,-34.7 19.64,-46.97 4.54,-12.27 6.15,-15.97 5.48,-20.72 -0.67,-4.75 -3.61,-10.56 -9.75,-14.65 -6.15,-4.09 -15.5,-6.47 -22.05,-4.75 -6.55,1.72 -10.29,7.52 -17.1,12.14 -6.81,4.62 -16.7,8.05 -32.87,13.72 -16.17,5.67 -38.62,13.59 -73.23,20.85 -34.61,7.26 -81.38,13.85 -116.79,18.08 -35.41,4.22 -59.46,6.07 -75.37,7.92 -15.9,1.85 -23.65,3.69 -29.93,5.41 -6.28,1.72 -11.09,3.3 -11.33,6.31 -0.24,3.01 4.1,7.44 8.25,8.37 4.14,0.92 8.09,-1.66 11.26,-3.09 3.18,-1.43 5.58,-1.69 13.73,-1.95z"/>
  <path class="fil12" d="M821.17 1360.86c2.5,-0.88 11.9,-3.52 19.97,-7.05 8.08,-3.52 14.83,-7.93 24.52,-7.93 9.69,0 22.32,4.41 32.31,7.2 9.99,2.79 17.33,3.96 24.52,1.03 7.2,-2.94 14.24,-9.99 20.26,-14.98 6.02,-4.99 11.01,-7.93 18.06,-8.08 7.05,-0.15 16.15,2.5 24.82,4.11 8.66,1.62 16.89,2.2 23.2,2.06 6.31,-0.15 10.72,-1.03 16.45,-7.05 5.73,-6.02 12.78,-17.18 19.97,-22.47 7.2,-5.29 14.54,-4.7 20.7,-2.79 6.17,1.91 11.16,5.14 16.89,5.58 5.73,0.44 12.19,-1.91 18.5,-7.64 6.31,-5.73 12.48,-14.83 19.4,-18.25 6.92,-3.42 14.6,-1.14 15.19,0.32 0.59,1.47 -5.92,2.13 -10.78,3.49 -4.87,1.36 -8.1,3.42 -12.21,7.53 -4.11,4.11 -9.1,10.28 -13.51,14.54 -4.41,4.26 -8.22,6.61 -15.27,6.02 -7.05,-0.59 -17.33,-4.11 -23.35,-5.87 -6.02,-1.76 -7.78,-1.76 -11.31,1.17 -3.52,2.94 -8.81,8.81 -12.63,13.22 -3.82,4.41 -6.17,7.34 -9.25,9.84 -3.08,2.5 -6.9,4.55 -12.04,5.29 -5.14,0.73 -11.6,0.15 -21,-1.03 -9.4,-1.17 -21.73,-2.94 -29.22,-2.79 -7.49,0.15 -10.13,2.2 -15.27,5.58 -5.14,3.38 -12.78,8.08 -18.65,11.6 -5.87,3.52 -9.99,5.87 -15.57,6.31 -5.58,0.44 -12.63,-1.03 -21,-3.08 -8.37,-2.06 -18.06,-4.7 -25.11,-5.58 -7.05,-0.88 -11.45,0 -15.71,1.62 -4.26,1.62 -8.37,3.96 -12.78,5.29 -4.41,1.32 -9.1,1.62 -13.66,2.2 -4.55,0.59 -8.96,1.47 -6.46,0.59z"/>
  <ellipse class="fil0 str6" cx="788.25" cy="1117.74" rx="9.63" ry="8.2"/>
  <ellipse class="fil0 str6" cx="1102.3" cy="1138.1" rx="9.73" ry="8.29"/>
  <path class="fil13" style="mask:url(#id10)" d="M550.43 733.97c1.91,7.45 65.87,4.02 80.19,4.02 88.75,0 589.56,-3.75 623.01,1.32 -7.82,-138.38 24.4,-262.72 20.93,-294.85 -0.96,-8.92 -45.65,-91.14 -53.64,-105.48 -14.55,-26.11 -46.55,-80.48 -55.01,-105.82l-16.15 19.1c-48.6,66.93 -120.15,126.65 -121.01,127.72 -1.25,-52.47 77.63,-160.11 89.43,-184.83 -6.89,-5.37 -244.92,-71.9 -267.46,-74.88 -11.44,61.9 -26.26,125.35 -35.57,186.82 -4.97,32.82 -9.22,64.46 -15.32,96.37 -6.18,32.32 -16.76,68.79 -20.02,98.56 21.01,14.61 120.53,114.64 132.74,139.31 -45.27,-15.73 -130.63,-79.52 -172.32,-109.89 -16.5,-12.02 -18.07,-15.3 -13.8,-43.51 5.15,-34 12.24,-67.46 16.24,-100.76 -18.2,6.6 -82.62,34.3 -89.51,46.79l-102.73 300.01z"/>
 </g>
</svg>
